<svg xmlns="http://www.w3.org/2000/svg" xmlns:xlink="http://www.w3.org/1999/xlink" width="200" zoomAndPan="magnify" viewBox="0 0 150 52.499999" height="70" preserveAspectRatio="xMidYMid meet" version="1.0"><defs><g/></defs><g fill="#003f63" fill-opacity="0.4"><g transform="translate(3.735074, 37.535448)"><g><path d="M 6.234375 -23.546875 C 8.003906 -23.546875 9.3125 -23.019531 10.15625 -21.96875 C 11 -20.914062 11.421875 -19.5 11.421875 -17.71875 L 11.421875 -17.09375 L 8.96875 -17.09375 L 8.96875 -17.859375 C 8.96875 -18.921875 8.753906 -19.738281 8.328125 -20.3125 C 7.898438 -20.894531 7.222656 -21.1875 6.296875 -21.1875 C 5.359375 -21.1875 4.675781 -20.894531 4.25 -20.3125 C 3.832031 -19.738281 3.625 -18.929688 3.625 -17.890625 C 3.625 -17.023438 3.816406 -16.269531 4.203125 -15.625 C 4.597656 -14.976562 5.082031 -14.382812 5.65625 -13.84375 C 6.238281 -13.300781 6.867188 -12.765625 7.546875 -12.234375 C 8.222656 -11.710938 8.847656 -11.140625 9.421875 -10.515625 C 10.003906 -9.898438 10.488281 -9.195312 10.875 -8.40625 C 11.257812 -7.625 11.453125 -6.6875 11.453125 -5.59375 C 11.453125 -3.820312 11.023438 -2.40625 10.171875 -1.34375 C 9.316406 -0.289062 7.992188 0.234375 6.203125 0.234375 C 4.398438 0.234375 3.078125 -0.289062 2.234375 -1.34375 C 1.390625 -2.40625 0.96875 -3.820312 0.96875 -5.59375 L 0.96875 -6.921875 L 3.390625 -6.921875 L 3.390625 -5.46875 C 3.390625 -4.394531 3.613281 -3.566406 4.0625 -2.984375 C 4.507812 -2.410156 5.195312 -2.125 6.125 -2.125 C 7.0625 -2.125 7.75 -2.410156 8.1875 -2.984375 C 8.632812 -3.566406 8.859375 -4.394531 8.859375 -5.46875 C 8.859375 -6.332031 8.660156 -7.078125 8.265625 -7.703125 C 7.878906 -8.335938 7.398438 -8.925781 6.828125 -9.46875 C 6.253906 -10.019531 5.632812 -10.554688 4.96875 -11.078125 C 4.300781 -11.597656 3.675781 -12.164062 3.09375 -12.78125 C 2.519531 -13.40625 2.035156 -14.113281 1.640625 -14.90625 C 1.253906 -15.695312 1.0625 -16.632812 1.0625 -17.71875 C 1.0625 -19.519531 1.484375 -20.941406 2.328125 -21.984375 C 3.171875 -23.023438 4.472656 -23.546875 6.234375 -23.546875 Z M 6.234375 -23.546875 "/></g></g></g><g fill="#003f63" fill-opacity="0.4"><g transform="translate(16.128287, 37.535448)"><g><path d="M 1.125 -17.6875 C 1.125 -19.488281 1.5625 -20.914062 2.4375 -21.96875 C 3.320312 -23.019531 4.664062 -23.546875 6.46875 -23.546875 C 8.257812 -23.546875 9.597656 -23.019531 10.484375 -21.96875 C 11.378906 -20.914062 11.828125 -19.488281 11.828125 -17.6875 L 11.828125 -5.625 C 11.828125 -3.851562 11.378906 -2.429688 10.484375 -1.359375 C 9.597656 -0.296875 8.257812 0.234375 6.46875 0.234375 C 4.664062 0.234375 3.320312 -0.296875 2.4375 -1.359375 C 1.5625 -2.429688 1.125 -3.851562 1.125 -5.625 Z M 3.703125 -5.5 C 3.703125 -4.425781 3.925781 -3.59375 4.375 -3 C 4.832031 -2.414062 5.53125 -2.125 6.46875 -2.125 C 7.414062 -2.125 8.113281 -2.414062 8.5625 -3 C 9.007812 -3.59375 9.234375 -4.425781 9.234375 -5.5 L 9.234375 -17.828125 C 9.234375 -18.890625 9.007812 -19.710938 8.5625 -20.296875 C 8.113281 -20.890625 7.414062 -21.1875 6.46875 -21.1875 C 5.53125 -21.1875 4.832031 -20.890625 4.375 -20.296875 C 3.925781 -19.710938 3.703125 -18.890625 3.703125 -17.828125 Z M 3.703125 -5.5 "/></g></g></g><g fill="#003f63" fill-opacity="0.4"><g transform="translate(29.087858, 37.535448)"><g><path d="M 6.5625 -23.3125 C 8.382812 -23.3125 9.679688 -22.882812 10.453125 -22.03125 C 11.234375 -21.175781 11.625 -19.882812 11.625 -18.15625 L 11.625 -17.0625 C 11.625 -15.8125 11.421875 -14.800781 11.015625 -14.03125 C 10.617188 -13.269531 9.910156 -12.734375 8.890625 -12.421875 C 10.023438 -12.109375 10.832031 -11.519531 11.3125 -10.65625 C 11.789062 -9.789062 12.03125 -8.710938 12.03125 -7.421875 L 12.03125 -5.46875 C 12.03125 -3.707031 11.59375 -2.351562 10.71875 -1.40625 C 9.851562 -0.46875 8.515625 0 6.703125 0 L 1.328125 0 L 1.328125 -23.3125 Z M 5.921875 -13.421875 C 6.972656 -13.421875 7.757812 -13.628906 8.28125 -14.046875 C 8.800781 -14.472656 9.0625 -15.296875 9.0625 -16.515625 L 9.0625 -17.890625 C 9.0625 -18.929688 8.863281 -19.703125 8.46875 -20.203125 C 8.082031 -20.703125 7.425781 -20.953125 6.5 -20.953125 L 3.9375 -20.953125 L 3.9375 -13.421875 Z M 6.703125 -2.359375 C 8.535156 -2.359375 9.453125 -3.414062 9.453125 -5.53125 L 9.453125 -7.59375 C 9.453125 -8.90625 9.191406 -9.8125 8.671875 -10.3125 C 8.148438 -10.8125 7.328125 -11.0625 6.203125 -11.0625 L 3.9375 -11.0625 L 3.9375 -2.359375 Z M 6.703125 -2.359375 "/></g></g></g><g fill="#003f63" fill-opacity="0.4"><g transform="translate(42.147368, 37.535448)"><g><path d="M 9.625 -12.984375 L 9.625 -10.65625 L 3.9375 -10.65625 L 3.9375 -2.359375 L 10.921875 -2.359375 L 10.921875 0 L 1.328125 0 L 1.328125 -23.3125 L 10.921875 -23.3125 L 10.921875 -20.953125 L 3.9375 -20.953125 L 3.9375 -12.984375 Z M 9.625 -12.984375 "/></g></g></g><g fill="#003f63" fill-opacity="0.4"><g transform="translate(54.140802, 37.535448)"><g><path d="M 6.53125 -23.3125 C 8.375 -23.3125 9.695312 -22.859375 10.5 -21.953125 C 11.3125 -21.046875 11.71875 -19.722656 11.71875 -17.984375 L 11.71875 -16.09375 C 11.71875 -14.800781 11.484375 -13.753906 11.015625 -12.953125 C 10.554688 -12.160156 9.828125 -11.609375 8.828125 -11.296875 C 9.890625 -10.984375 10.644531 -10.410156 11.09375 -9.578125 C 11.539062 -8.742188 11.765625 -7.691406 11.765625 -6.421875 L 11.765625 -2.796875 C 11.765625 -2.285156 11.785156 -1.789062 11.828125 -1.3125 C 11.867188 -0.832031 12 -0.394531 12.21875 0 L 9.59375 0 C 9.4375 -0.332031 9.320312 -0.691406 9.25 -1.078125 C 9.1875 -1.472656 9.15625 -2.054688 9.15625 -2.828125 L 9.15625 -6.5 C 9.15625 -7.8125 8.859375 -8.710938 8.265625 -9.203125 C 7.679688 -9.703125 6.847656 -9.953125 5.765625 -9.953125 L 3.9375 -9.953125 L 3.9375 0 L 1.328125 0 L 1.328125 -23.3125 Z M 5.859375 -12.328125 C 6.898438 -12.328125 7.707031 -12.539062 8.28125 -12.96875 C 8.863281 -13.40625 9.15625 -14.257812 9.15625 -15.53125 L 9.15625 -17.75 C 9.15625 -18.820312 8.945312 -19.625 8.53125 -20.15625 C 8.125 -20.6875 7.4375 -20.953125 6.46875 -20.953125 L 3.9375 -20.953125 L 3.9375 -12.328125 Z M 5.859375 -12.328125 "/></g></g></g><g fill="#003f63" fill-opacity="0.4"><g transform="translate(67.266942, 37.535448)"><g/></g></g><g fill="#003f63" fill-opacity="0.4"><g transform="translate(72.43078, 37.535448)"><g><path d="M 6.234375 -23.546875 C 8.003906 -23.546875 9.3125 -23.019531 10.15625 -21.96875 C 11 -20.914062 11.421875 -19.5 11.421875 -17.71875 L 11.421875 -17.09375 L 8.96875 -17.09375 L 8.96875 -17.859375 C 8.96875 -18.921875 8.753906 -19.738281 8.328125 -20.3125 C 7.898438 -20.894531 7.222656 -21.1875 6.296875 -21.1875 C 5.359375 -21.1875 4.675781 -20.894531 4.25 -20.3125 C 3.832031 -19.738281 3.625 -18.929688 3.625 -17.890625 C 3.625 -17.023438 3.816406 -16.269531 4.203125 -15.625 C 4.597656 -14.976562 5.082031 -14.382812 5.65625 -13.84375 C 6.238281 -13.300781 6.867188 -12.765625 7.546875 -12.234375 C 8.222656 -11.710938 8.847656 -11.140625 9.421875 -10.515625 C 10.003906 -9.898438 10.488281 -9.195312 10.875 -8.40625 C 11.257812 -7.625 11.453125 -6.6875 11.453125 -5.59375 C 11.453125 -3.820312 11.023438 -2.40625 10.171875 -1.34375 C 9.316406 -0.289062 7.992188 0.234375 6.203125 0.234375 C 4.398438 0.234375 3.078125 -0.289062 2.234375 -1.34375 C 1.390625 -2.40625 0.96875 -3.820312 0.96875 -5.59375 L 0.96875 -6.921875 L 3.390625 -6.921875 L 3.390625 -5.46875 C 3.390625 -4.394531 3.613281 -3.566406 4.0625 -2.984375 C 4.507812 -2.410156 5.195312 -2.125 6.125 -2.125 C 7.0625 -2.125 7.75 -2.410156 8.1875 -2.984375 C 8.632812 -3.566406 8.859375 -4.394531 8.859375 -5.46875 C 8.859375 -6.332031 8.660156 -7.078125 8.265625 -7.703125 C 7.878906 -8.335938 7.398438 -8.925781 6.828125 -9.46875 C 6.253906 -10.019531 5.632812 -10.554688 4.96875 -11.078125 C 4.300781 -11.597656 3.675781 -12.164062 3.09375 -12.78125 C 2.519531 -13.40625 2.035156 -14.113281 1.640625 -14.90625 C 1.253906 -15.695312 1.0625 -16.632812 1.0625 -17.71875 C 1.0625 -19.519531 1.484375 -20.941406 2.328125 -21.984375 C 3.171875 -23.023438 4.472656 -23.546875 6.234375 -23.546875 Z M 6.234375 -23.546875 "/></g></g></g><g fill="#003f63" fill-opacity="0.4"><g transform="translate(84.823993, 37.535448)"><g><path d="M 4.703125 0 L 4.703125 -20.953125 L 0.40625 -20.953125 L 0.40625 -23.3125 L 11.5625 -23.3125 L 11.5625 -20.953125 L 7.265625 -20.953125 L 7.265625 0 Z M 4.703125 0 "/></g></g></g><g fill="#003f63" fill-opacity="0.4"><g transform="translate(96.817426, 37.535448)"><g><path d="M 1.125 -17.6875 C 1.125 -19.488281 1.5625 -20.914062 2.4375 -21.96875 C 3.320312 -23.019531 4.664062 -23.546875 6.46875 -23.546875 C 8.257812 -23.546875 9.597656 -23.019531 10.484375 -21.96875 C 11.378906 -20.914062 11.828125 -19.488281 11.828125 -17.6875 L 11.828125 -5.625 C 11.828125 -3.851562 11.378906 -2.429688 10.484375 -1.359375 C 9.597656 -0.296875 8.257812 0.234375 6.46875 0.234375 C 4.664062 0.234375 3.320312 -0.296875 2.4375 -1.359375 C 1.5625 -2.429688 1.125 -3.851562 1.125 -5.625 Z M 3.703125 -5.5 C 3.703125 -4.425781 3.925781 -3.59375 4.375 -3 C 4.832031 -2.414062 5.53125 -2.125 6.46875 -2.125 C 7.414062 -2.125 8.113281 -2.414062 8.5625 -3 C 9.007812 -3.59375 9.234375 -4.425781 9.234375 -5.5 L 9.234375 -17.828125 C 9.234375 -18.890625 9.007812 -19.710938 8.5625 -20.296875 C 8.113281 -20.890625 7.414062 -21.1875 6.46875 -21.1875 C 5.53125 -21.1875 4.832031 -20.890625 4.375 -20.296875 C 3.925781 -19.710938 3.703125 -18.890625 3.703125 -17.828125 Z M 3.703125 -5.5 "/></g></g></g><g fill="#003f63" fill-opacity="0.4"><g transform="translate(109.776998, 37.535448)"><g><path d="M 6.359375 -23.546875 C 8.160156 -23.546875 9.488281 -23.015625 10.34375 -21.953125 C 11.195312 -20.890625 11.625 -19.46875 11.625 -17.6875 L 11.625 -15.59375 L 9.15625 -15.59375 L 9.15625 -17.828125 C 9.15625 -18.890625 8.9375 -19.710938 8.5 -20.296875 C 8.070312 -20.890625 7.378906 -21.1875 6.421875 -21.1875 C 5.492188 -21.1875 4.804688 -20.890625 4.359375 -20.296875 C 3.921875 -19.710938 3.703125 -18.890625 3.703125 -17.828125 L 3.703125 -5.5 C 3.703125 -4.425781 3.921875 -3.59375 4.359375 -3 C 4.804688 -2.414062 5.492188 -2.125 6.421875 -2.125 C 7.378906 -2.125 8.070312 -2.414062 8.5 -3 C 8.9375 -3.59375 9.15625 -4.425781 9.15625 -5.5 L 9.15625 -8.53125 L 11.625 -8.53125 L 11.625 -5.625 C 11.625 -3.851562 11.195312 -2.429688 10.34375 -1.359375 C 9.488281 -0.296875 8.160156 0.234375 6.359375 0.234375 C 4.585938 0.234375 3.269531 -0.296875 2.40625 -1.359375 C 1.550781 -2.429688 1.125 -3.851562 1.125 -5.625 L 1.125 -17.6875 C 1.125 -18.570312 1.226562 -19.375 1.4375 -20.09375 C 1.65625 -20.820312 1.976562 -21.441406 2.40625 -21.953125 C 2.84375 -22.460938 3.390625 -22.851562 4.046875 -23.125 C 4.703125 -23.40625 5.472656 -23.546875 6.359375 -23.546875 Z M 6.359375 -23.546875 "/></g></g></g><g fill="#003f63" fill-opacity="0.4"><g transform="translate(122.436729, 37.535448)"><g><path d="M 5.296875 -10.125 L 3.9375 -7.828125 L 3.9375 0 L 1.328125 0 L 1.328125 -23.3125 L 3.9375 -23.3125 L 3.9375 -12.0625 L 10.125 -23.3125 L 12.765625 -23.3125 L 6.859375 -12.6875 L 12.953125 0 L 10.296875 0 Z M 5.296875 -10.125 "/></g></g></g><g fill="#003f63" fill-opacity="0.4"><g transform="translate(136.062598, 37.535448)"><g><path d="M 6.234375 -23.546875 C 8.003906 -23.546875 9.3125 -23.019531 10.15625 -21.96875 C 11 -20.914062 11.421875 -19.5 11.421875 -17.71875 L 11.421875 -17.09375 L 8.96875 -17.09375 L 8.96875 -17.859375 C 8.96875 -18.921875 8.753906 -19.738281 8.328125 -20.3125 C 7.898438 -20.894531 7.222656 -21.1875 6.296875 -21.1875 C 5.359375 -21.1875 4.675781 -20.894531 4.25 -20.3125 C 3.832031 -19.738281 3.625 -18.929688 3.625 -17.890625 C 3.625 -17.023438 3.816406 -16.269531 4.203125 -15.625 C 4.597656 -14.976562 5.082031 -14.382812 5.65625 -13.84375 C 6.238281 -13.300781 6.867188 -12.765625 7.546875 -12.234375 C 8.222656 -11.710938 8.847656 -11.140625 9.421875 -10.515625 C 10.003906 -9.898438 10.488281 -9.195312 10.875 -8.40625 C 11.257812 -7.625 11.453125 -6.6875 11.453125 -5.59375 C 11.453125 -3.820312 11.023438 -2.40625 10.171875 -1.34375 C 9.316406 -0.289062 7.992188 0.234375 6.203125 0.234375 C 4.398438 0.234375 3.078125 -0.289062 2.234375 -1.34375 C 1.390625 -2.40625 0.96875 -3.820312 0.96875 -5.59375 L 0.96875 -6.921875 L 3.390625 -6.921875 L 3.390625 -5.46875 C 3.390625 -4.394531 3.613281 -3.566406 4.0625 -2.984375 C 4.507812 -2.410156 5.195312 -2.125 6.125 -2.125 C 7.0625 -2.125 7.75 -2.410156 8.1875 -2.984375 C 8.632812 -3.566406 8.859375 -4.394531 8.859375 -5.46875 C 8.859375 -6.332031 8.660156 -7.078125 8.265625 -7.703125 C 7.878906 -8.335938 7.398438 -8.925781 6.828125 -9.46875 C 6.253906 -10.019531 5.632812 -10.554688 4.96875 -11.078125 C 4.300781 -11.597656 3.675781 -12.164062 3.09375 -12.78125 C 2.519531 -13.40625 2.035156 -14.113281 1.640625 -14.90625 C 1.253906 -15.695312 1.0625 -16.632812 1.0625 -17.71875 C 1.0625 -19.519531 1.484375 -20.941406 2.328125 -21.984375 C 3.171875 -23.023438 4.472656 -23.546875 6.234375 -23.546875 Z M 6.234375 -23.546875 "/></g></g></g><g fill="#000000" fill-opacity="1"><g transform="translate(2.64555, 36.445923)"><g><path d="M 6.234375 -23.546875 C 8.003906 -23.546875 9.3125 -23.019531 10.15625 -21.96875 C 11 -20.914062 11.421875 -19.5 11.421875 -17.71875 L 11.421875 -17.09375 L 8.96875 -17.09375 L 8.96875 -17.859375 C 8.96875 -18.921875 8.753906 -19.738281 8.328125 -20.3125 C 7.898438 -20.894531 7.222656 -21.1875 6.296875 -21.1875 C 5.359375 -21.1875 4.675781 -20.894531 4.25 -20.3125 C 3.832031 -19.738281 3.625 -18.929688 3.625 -17.890625 C 3.625 -17.023438 3.816406 -16.269531 4.203125 -15.625 C 4.597656 -14.976562 5.082031 -14.382812 5.65625 -13.84375 C 6.238281 -13.300781 6.867188 -12.765625 7.546875 -12.234375 C 8.222656 -11.710938 8.847656 -11.140625 9.421875 -10.515625 C 10.003906 -9.898438 10.488281 -9.195312 10.875 -8.40625 C 11.257812 -7.625 11.453125 -6.6875 11.453125 -5.59375 C 11.453125 -3.820312 11.023438 -2.40625 10.171875 -1.34375 C 9.316406 -0.289062 7.992188 0.234375 6.203125 0.234375 C 4.398438 0.234375 3.078125 -0.289062 2.234375 -1.34375 C 1.390625 -2.40625 0.96875 -3.820312 0.96875 -5.59375 L 0.96875 -6.921875 L 3.390625 -6.921875 L 3.390625 -5.46875 C 3.390625 -4.394531 3.613281 -3.566406 4.0625 -2.984375 C 4.507812 -2.410156 5.195312 -2.125 6.125 -2.125 C 7.0625 -2.125 7.75 -2.410156 8.1875 -2.984375 C 8.632812 -3.566406 8.859375 -4.394531 8.859375 -5.46875 C 8.859375 -6.332031 8.660156 -7.078125 8.265625 -7.703125 C 7.878906 -8.335938 7.398438 -8.925781 6.828125 -9.46875 C 6.253906 -10.019531 5.632812 -10.554688 4.96875 -11.078125 C 4.300781 -11.597656 3.675781 -12.164062 3.09375 -12.78125 C 2.519531 -13.40625 2.035156 -14.113281 1.640625 -14.90625 C 1.253906 -15.695312 1.0625 -16.632812 1.0625 -17.71875 C 1.0625 -19.519531 1.484375 -20.941406 2.328125 -21.984375 C 3.171875 -23.023438 4.472656 -23.546875 6.234375 -23.546875 Z M 6.234375 -23.546875 "/></g></g></g><g fill="#000000" fill-opacity="1"><g transform="translate(15.038762, 36.445923)"><g><path d="M 1.125 -17.6875 C 1.125 -19.488281 1.5625 -20.914062 2.4375 -21.96875 C 3.320312 -23.019531 4.664062 -23.546875 6.46875 -23.546875 C 8.257812 -23.546875 9.597656 -23.019531 10.484375 -21.96875 C 11.378906 -20.914062 11.828125 -19.488281 11.828125 -17.6875 L 11.828125 -5.625 C 11.828125 -3.851562 11.378906 -2.429688 10.484375 -1.359375 C 9.597656 -0.296875 8.257812 0.234375 6.46875 0.234375 C 4.664062 0.234375 3.320312 -0.296875 2.4375 -1.359375 C 1.5625 -2.429688 1.125 -3.851562 1.125 -5.625 Z M 3.703125 -5.5 C 3.703125 -4.425781 3.925781 -3.59375 4.375 -3 C 4.832031 -2.414062 5.53125 -2.125 6.46875 -2.125 C 7.414062 -2.125 8.113281 -2.414062 8.5625 -3 C 9.007812 -3.59375 9.234375 -4.425781 9.234375 -5.5 L 9.234375 -17.828125 C 9.234375 -18.890625 9.007812 -19.710938 8.5625 -20.296875 C 8.113281 -20.890625 7.414062 -21.1875 6.46875 -21.1875 C 5.53125 -21.1875 4.832031 -20.890625 4.375 -20.296875 C 3.925781 -19.710938 3.703125 -18.890625 3.703125 -17.828125 Z M 3.703125 -5.5 "/></g></g></g><g fill="#000000" fill-opacity="1"><g transform="translate(27.998334, 36.445923)"><g><path d="M 6.5625 -23.3125 C 8.382812 -23.3125 9.679688 -22.882812 10.453125 -22.03125 C 11.234375 -21.175781 11.625 -19.882812 11.625 -18.15625 L 11.625 -17.0625 C 11.625 -15.8125 11.421875 -14.800781 11.015625 -14.03125 C 10.617188 -13.269531 9.910156 -12.734375 8.890625 -12.421875 C 10.023438 -12.109375 10.832031 -11.519531 11.3125 -10.65625 C 11.789062 -9.789062 12.03125 -8.710938 12.03125 -7.421875 L 12.03125 -5.46875 C 12.03125 -3.707031 11.59375 -2.351562 10.71875 -1.40625 C 9.851562 -0.46875 8.515625 0 6.703125 0 L 1.328125 0 L 1.328125 -23.3125 Z M 5.921875 -13.421875 C 6.972656 -13.421875 7.757812 -13.628906 8.28125 -14.046875 C 8.800781 -14.472656 9.0625 -15.296875 9.0625 -16.515625 L 9.0625 -17.890625 C 9.0625 -18.929688 8.863281 -19.703125 8.46875 -20.203125 C 8.082031 -20.703125 7.425781 -20.953125 6.5 -20.953125 L 3.9375 -20.953125 L 3.9375 -13.421875 Z M 6.703125 -2.359375 C 8.535156 -2.359375 9.453125 -3.414062 9.453125 -5.53125 L 9.453125 -7.59375 C 9.453125 -8.90625 9.191406 -9.8125 8.671875 -10.3125 C 8.148438 -10.8125 7.328125 -11.0625 6.203125 -11.0625 L 3.9375 -11.0625 L 3.9375 -2.359375 Z M 6.703125 -2.359375 "/></g></g></g><g fill="#000000" fill-opacity="1"><g transform="translate(41.057844, 36.445923)"><g><path d="M 9.625 -12.984375 L 9.625 -10.65625 L 3.9375 -10.65625 L 3.9375 -2.359375 L 10.921875 -2.359375 L 10.921875 0 L 1.328125 0 L 1.328125 -23.3125 L 10.921875 -23.3125 L 10.921875 -20.953125 L 3.9375 -20.953125 L 3.9375 -12.984375 Z M 9.625 -12.984375 "/></g></g></g><g fill="#000000" fill-opacity="1"><g transform="translate(53.051277, 36.445923)"><g><path d="M 6.53125 -23.3125 C 8.375 -23.3125 9.695312 -22.859375 10.5 -21.953125 C 11.3125 -21.046875 11.71875 -19.722656 11.71875 -17.984375 L 11.71875 -16.09375 C 11.71875 -14.800781 11.484375 -13.753906 11.015625 -12.953125 C 10.554688 -12.160156 9.828125 -11.609375 8.828125 -11.296875 C 9.890625 -10.984375 10.644531 -10.410156 11.09375 -9.578125 C 11.539062 -8.742188 11.765625 -7.691406 11.765625 -6.421875 L 11.765625 -2.796875 C 11.765625 -2.285156 11.785156 -1.789062 11.828125 -1.3125 C 11.867188 -0.832031 12 -0.394531 12.21875 0 L 9.59375 0 C 9.4375 -0.332031 9.320312 -0.691406 9.25 -1.078125 C 9.1875 -1.472656 9.15625 -2.054688 9.15625 -2.828125 L 9.15625 -6.5 C 9.15625 -7.8125 8.859375 -8.710938 8.265625 -9.203125 C 7.679688 -9.703125 6.847656 -9.953125 5.765625 -9.953125 L 3.9375 -9.953125 L 3.9375 0 L 1.328125 0 L 1.328125 -23.3125 Z M 5.859375 -12.328125 C 6.898438 -12.328125 7.707031 -12.539062 8.28125 -12.96875 C 8.863281 -13.40625 9.15625 -14.257812 9.15625 -15.53125 L 9.15625 -17.75 C 9.15625 -18.820312 8.945312 -19.625 8.53125 -20.15625 C 8.125 -20.6875 7.4375 -20.953125 6.46875 -20.953125 L 3.9375 -20.953125 L 3.9375 -12.328125 Z M 5.859375 -12.328125 "/></g></g></g><g fill="#000000" fill-opacity="1"><g transform="translate(66.177417, 36.445923)"><g/></g></g><g fill="#000000" fill-opacity="1"><g transform="translate(71.341256, 36.445923)"><g><path d="M 6.234375 -23.546875 C 8.003906 -23.546875 9.3125 -23.019531 10.15625 -21.96875 C 11 -20.914062 11.421875 -19.5 11.421875 -17.71875 L 11.421875 -17.09375 L 8.96875 -17.09375 L 8.96875 -17.859375 C 8.96875 -18.921875 8.753906 -19.738281 8.328125 -20.3125 C 7.898438 -20.894531 7.222656 -21.1875 6.296875 -21.1875 C 5.359375 -21.1875 4.675781 -20.894531 4.25 -20.3125 C 3.832031 -19.738281 3.625 -18.929688 3.625 -17.890625 C 3.625 -17.023438 3.816406 -16.269531 4.203125 -15.625 C 4.597656 -14.976562 5.082031 -14.382812 5.65625 -13.84375 C 6.238281 -13.300781 6.867188 -12.765625 7.546875 -12.234375 C 8.222656 -11.710938 8.847656 -11.140625 9.421875 -10.515625 C 10.003906 -9.898438 10.488281 -9.195312 10.875 -8.40625 C 11.257812 -7.625 11.453125 -6.6875 11.453125 -5.59375 C 11.453125 -3.820312 11.023438 -2.40625 10.171875 -1.34375 C 9.316406 -0.289062 7.992188 0.234375 6.203125 0.234375 C 4.398438 0.234375 3.078125 -0.289062 2.234375 -1.34375 C 1.390625 -2.40625 0.96875 -3.820312 0.96875 -5.59375 L 0.96875 -6.921875 L 3.390625 -6.921875 L 3.390625 -5.46875 C 3.390625 -4.394531 3.613281 -3.566406 4.0625 -2.984375 C 4.507812 -2.410156 5.195312 -2.125 6.125 -2.125 C 7.0625 -2.125 7.75 -2.410156 8.1875 -2.984375 C 8.632812 -3.566406 8.859375 -4.394531 8.859375 -5.46875 C 8.859375 -6.332031 8.660156 -7.078125 8.265625 -7.703125 C 7.878906 -8.335938 7.398438 -8.925781 6.828125 -9.46875 C 6.253906 -10.019531 5.632812 -10.554688 4.96875 -11.078125 C 4.300781 -11.597656 3.675781 -12.164062 3.09375 -12.78125 C 2.519531 -13.40625 2.035156 -14.113281 1.640625 -14.90625 C 1.253906 -15.695312 1.0625 -16.632812 1.0625 -17.71875 C 1.0625 -19.519531 1.484375 -20.941406 2.328125 -21.984375 C 3.171875 -23.023438 4.472656 -23.546875 6.234375 -23.546875 Z M 6.234375 -23.546875 "/></g></g></g><g fill="#000000" fill-opacity="1"><g transform="translate(83.734468, 36.445923)"><g><path d="M 4.703125 0 L 4.703125 -20.953125 L 0.40625 -20.953125 L 0.40625 -23.3125 L 11.5625 -23.3125 L 11.5625 -20.953125 L 7.265625 -20.953125 L 7.265625 0 Z M 4.703125 0 "/></g></g></g><g fill="#000000" fill-opacity="1"><g transform="translate(95.727902, 36.445923)"><g><path d="M 1.125 -17.6875 C 1.125 -19.488281 1.5625 -20.914062 2.4375 -21.96875 C 3.320312 -23.019531 4.664062 -23.546875 6.46875 -23.546875 C 8.257812 -23.546875 9.597656 -23.019531 10.484375 -21.96875 C 11.378906 -20.914062 11.828125 -19.488281 11.828125 -17.6875 L 11.828125 -5.625 C 11.828125 -3.851562 11.378906 -2.429688 10.484375 -1.359375 C 9.597656 -0.296875 8.257812 0.234375 6.46875 0.234375 C 4.664062 0.234375 3.320312 -0.296875 2.4375 -1.359375 C 1.5625 -2.429688 1.125 -3.851562 1.125 -5.625 Z M 3.703125 -5.5 C 3.703125 -4.425781 3.925781 -3.59375 4.375 -3 C 4.832031 -2.414062 5.53125 -2.125 6.46875 -2.125 C 7.414062 -2.125 8.113281 -2.414062 8.5625 -3 C 9.007812 -3.59375 9.234375 -4.425781 9.234375 -5.5 L 9.234375 -17.828125 C 9.234375 -18.890625 9.007812 -19.710938 8.5625 -20.296875 C 8.113281 -20.890625 7.414062 -21.1875 6.46875 -21.1875 C 5.53125 -21.1875 4.832031 -20.890625 4.375 -20.296875 C 3.925781 -19.710938 3.703125 -18.890625 3.703125 -17.828125 Z M 3.703125 -5.5 "/></g></g></g><g fill="#000000" fill-opacity="1"><g transform="translate(108.687473, 36.445923)"><g><path d="M 6.359375 -23.546875 C 8.160156 -23.546875 9.488281 -23.015625 10.34375 -21.953125 C 11.195312 -20.890625 11.625 -19.46875 11.625 -17.6875 L 11.625 -15.59375 L 9.15625 -15.59375 L 9.15625 -17.828125 C 9.15625 -18.890625 8.9375 -19.710938 8.5 -20.296875 C 8.070312 -20.890625 7.378906 -21.1875 6.421875 -21.1875 C 5.492188 -21.1875 4.804688 -20.890625 4.359375 -20.296875 C 3.921875 -19.710938 3.703125 -18.890625 3.703125 -17.828125 L 3.703125 -5.5 C 3.703125 -4.425781 3.921875 -3.59375 4.359375 -3 C 4.804688 -2.414062 5.492188 -2.125 6.421875 -2.125 C 7.378906 -2.125 8.070312 -2.414062 8.5 -3 C 8.9375 -3.59375 9.15625 -4.425781 9.15625 -5.5 L 9.15625 -8.53125 L 11.625 -8.53125 L 11.625 -5.625 C 11.625 -3.851562 11.195312 -2.429688 10.34375 -1.359375 C 9.488281 -0.296875 8.160156 0.234375 6.359375 0.234375 C 4.585938 0.234375 3.269531 -0.296875 2.40625 -1.359375 C 1.550781 -2.429688 1.125 -3.851562 1.125 -5.625 L 1.125 -17.6875 C 1.125 -18.570312 1.226562 -19.375 1.4375 -20.09375 C 1.65625 -20.820312 1.976562 -21.441406 2.40625 -21.953125 C 2.84375 -22.460938 3.390625 -22.851562 4.046875 -23.125 C 4.703125 -23.40625 5.472656 -23.546875 6.359375 -23.546875 Z M 6.359375 -23.546875 "/></g></g></g><g fill="#000000" fill-opacity="1"><g transform="translate(121.347205, 36.445923)"><g><path d="M 5.296875 -10.125 L 3.9375 -7.828125 L 3.9375 0 L 1.328125 0 L 1.328125 -23.3125 L 3.9375 -23.3125 L 3.9375 -12.0625 L 10.125 -23.3125 L 12.765625 -23.3125 L 6.859375 -12.6875 L 12.953125 0 L 10.296875 0 Z M 5.296875 -10.125 "/></g></g></g><g fill="#000000" fill-opacity="1"><g transform="translate(134.973074, 36.445923)"><g><path d="M 6.234375 -23.546875 C 8.003906 -23.546875 9.3125 -23.019531 10.15625 -21.96875 C 11 -20.914062 11.421875 -19.5 11.421875 -17.71875 L 11.421875 -17.09375 L 8.96875 -17.09375 L 8.96875 -17.859375 C 8.96875 -18.921875 8.753906 -19.738281 8.328125 -20.3125 C 7.898438 -20.894531 7.222656 -21.1875 6.296875 -21.1875 C 5.359375 -21.1875 4.675781 -20.894531 4.25 -20.3125 C 3.832031 -19.738281 3.625 -18.929688 3.625 -17.890625 C 3.625 -17.023438 3.816406 -16.269531 4.203125 -15.625 C 4.597656 -14.976562 5.082031 -14.382812 5.65625 -13.84375 C 6.238281 -13.300781 6.867188 -12.765625 7.546875 -12.234375 C 8.222656 -11.710938 8.847656 -11.140625 9.421875 -10.515625 C 10.003906 -9.898438 10.488281 -9.195312 10.875 -8.40625 C 11.257812 -7.625 11.453125 -6.6875 11.453125 -5.59375 C 11.453125 -3.820312 11.023438 -2.40625 10.171875 -1.34375 C 9.316406 -0.289062 7.992188 0.234375 6.203125 0.234375 C 4.398438 0.234375 3.078125 -0.289062 2.234375 -1.34375 C 1.390625 -2.40625 0.96875 -3.820312 0.96875 -5.59375 L 0.96875 -6.921875 L 3.390625 -6.921875 L 3.390625 -5.46875 C 3.390625 -4.394531 3.613281 -3.566406 4.0625 -2.984375 C 4.507812 -2.410156 5.195312 -2.125 6.125 -2.125 C 7.0625 -2.125 7.75 -2.410156 8.1875 -2.984375 C 8.632812 -3.566406 8.859375 -4.394531 8.859375 -5.46875 C 8.859375 -6.332031 8.660156 -7.078125 8.265625 -7.703125 C 7.878906 -8.335938 7.398438 -8.925781 6.828125 -9.46875 C 6.253906 -10.019531 5.632812 -10.554688 4.96875 -11.078125 C 4.300781 -11.597656 3.675781 -12.164062 3.09375 -12.78125 C 2.519531 -13.40625 2.035156 -14.113281 1.640625 -14.90625 C 1.253906 -15.695312 1.0625 -16.632812 1.0625 -17.71875 C 1.0625 -19.519531 1.484375 -20.941406 2.328125 -21.984375 C 3.171875 -23.023438 4.472656 -23.546875 6.234375 -23.546875 Z M 6.234375 -23.546875 "/></g></g></g></svg>